{"title":"Slave 2009 DVDRip Xvid BigPerm LKRG","uid":7134997,"size":1039895058,"categoryP":"video","categoryS":"movies","magnet":"?xt=urn:btih:b9c3ee95bbf605eb15b3bb499591057e97e5fef7&amp;dn=Slave+2009+DVDRip+Xvid+BigPerm+LKRG&amp;tr=udp%3A%2F%2Ftracker.openbittorrent.com%3A80&amp;tr=udp%3A%2F%2Fopen.demonii.com%3A1337&amp;tr=udp%3A%2F%2Ftracker.coppersurfer.tk%3A6969&amp;tr=udp%3A%2F%2Fexodus.desync.com%3A6969","seeders":2,"leechers":0,"uploader":".BONE.","files":2,"time":1332827206,"description":"PLOT\n\n&quot;When David's (Sam Page) fiance', Georgie (Natassia Malthe) is kidnapped on a vacation in Spain, She is forced into\nbrutal sadomasochist submission in a world of bizarre sex and drugs...\n\nEncoded By .......: BigPerm\nRuntime ..........: 1h 24mn\nFile Size ........: 992 MB\nResolution .......: 704 x 396 &lt;a href=&quot;\nhttp://www.imdb.com/title/tt1436463/&quot; rel=&quot;nofollow&quot; target=&quot;_NEW&quot;&gt;\nhttp://www.imdb.com/title/tt1436463/&lt;/a&gt;\nGenre ............: Horror | Thriller\nLanguage .........: English\nSubtitles ........: None\nVideo\nID : 0\nFormat : MPEG-4 Visual\nFormat profile : Advanced Simple@L5\nFormat settings, BVOP : Yes\nFormat settings, QPel : No\nFormat settings, GMC : No warppoints\nFormat settings, Matrix : Default (H.263)\nCodec ID : XVID\nCodec ID/Hint : XviD\nDuration : 1h 24mn\nBit rate : 1 193 Kbps\nWidth : 704 pixels\nHeight : 396 pixels\nDisplay aspect ratio : 16:9\nFrame rate : 23.976 fps\nColor space : YUV\nChroma subsampling : 4:2:0\nBit depth : 8 bits\nScan type : Progressive\nCompression mode : Lossy\nBits/(Pixel*Frame) : 0.178\nStream size : 719 MiB (72%)\nWriting library : XviD 1.2.1 (UTC 2008-12-04)\n\nAudio\nID : 1\nFormat : AC-3\nFormat/Info : Audio Coding 3\nMode extension : CM (complete main)\nCodec ID : 2000\nDuration : 1h 24mn\nBit rate mode : Constant\nBit rate : 448 Kbps\nChannel(s) : 6 channels\nChannel positions : Front: L C R, Side: L R, LFE\nSampling rate : 48.0 KHz\nBit depth : 16 bits\nCompression mode : Lossy\nVideo delay : 42ms\nStream size : 270 MiB (27%)\nAlignment : Split accross interleaves\nInterleave, duration : 500 ms (11.99 video frames)\nInterleave, preload duration : 500 ms","torrent":{"xt":"urn:btih:b9c3ee95bbf605eb15b3bb499591057e97e5fef7","amp;dn":"Slave+2009+DVDRip+Xvid+BigPerm+LKRG","amp;tr":["udp%3A%2F%2Ftracker.openbittorrent.com%3A80","udp%3A%2F%2Fopen.demonii.com%3A1337","udp%3A%2F%2Ftracker.coppersurfer.tk%3A6969","udp%3A%2F%2Fexodus.desync.com%3A6969"],"infoHash":"b9c3ee95bbf605eb15b3bb499591057e97e5fef7","infoHashBuffer":{"type":"Buffer","data":[185,195,238,149,187,246,5,235,21,179,187,73,149,145,5,126,151,229,254,247]},"announce":[],"urlList":[]}}